name ./resultDataOpenSim/trcMotMarkerGrf/sub09/grf-01-03.mot
datacolumns 19
datarows 27
range 0.46400000 0.56800000
endheader

                time	     ground_force_vx	     ground_force_vy	     ground_force_vz	     ground_force_px	     ground_force_py	     ground_force_pz	   l_ground_force_vx	   l_ground_force_vy	   l_ground_force_vz	   l_ground_force_px	   l_ground_force_py	   l_ground_force_pz	     ground_torque_x	     ground_torque_y	     ground_torque_z	   l_ground_torque_x	   l_ground_torque_y	   l_ground_torque_z	
          0.46400000	         43.03676567	        446.59137283	        -23.55507184	         -0.70044189	          0.00000000	          0.11344552	          0.00000000	          0.00000000	          0.00000000	          0.00000000	          0.00000000	          0.00000000	          0.00000000	          4.74236340	          0.00000000	          0.00000000	          0.00000000	          0.00000000	
          0.46800000	         46.97371163	        457.40474893	        -24.47893407	         -0.69904542	          0.00000000	          0.11368659	          0.00000000	          0.00000000	          0.00000000	          0.00000000	          0.00000000	          0.00000000	          0.00000000	          5.00701295	          0.00000000	          0.00000000	          0.00000000	          0.00000000	
          0.47200000	         50.72379229	        468.92062227	        -25.06092371	         -0.69756969	          0.00000000	          0.11386401	          0.00000000	          0.00000000	          0.00000000	          0.00000000	          0.00000000	          0.00000000	          0.00000000	          5.32233694	          0.00000000	          0.00000000	          0.00000000	          0.00000000	
          0.47600000	         54.25856010	        481.15462968	        -25.44438535	         -0.69602534	          0.00000000	          0.11398780	          0.00000000	          0.00000000	          0.00000000	          0.00000000	          0.00000000	          0.00000000	          0.00000000	          5.66381635	          0.00000000	          0.00000000	          0.00000000	          0.00000000	
          0.48000000	         57.61437129	        494.12344720	        -25.84806284	         -0.69441976	          0.00000000	          0.11406991	          0.00000000	          0.00000000	          0.00000000	          0.00000000	          0.00000000	          0.00000000	          0.00000000	          5.99379966	          0.00000000	          0.00000000	          0.00000000	          0.00000000	
          0.48400000	         60.86891910	        507.83162393	        -26.52306558	         -0.69276788	          0.00000000	          0.11411832	          0.00000000	          0.00000000	          0.00000000	          0.00000000	          0.00000000	          0.00000000	          0.00000000	          6.26901500	          0.00000000	          0.00000000	          0.00000000	          0.00000000	
          0.48800000	         64.09999484	        522.23091791	        -27.68815812	         -0.69108179	          0.00000000	          0.11414269	          0.00000000	          0.00000000	          0.00000000	          0.00000000	          0.00000000	          0.00000000	          0.00000000	          6.45051975	          0.00000000	          0.00000000	          0.00000000	          0.00000000	
          0.49200000	         67.34363318	        537.20032109	        -29.45367086	         -0.68935785	          0.00000000	          0.11415062	          0.00000000	          0.00000000	          0.00000000	          0.00000000	          0.00000000	          0.00000000	          0.00000000	          6.51380089	          0.00000000	          0.00000000	          0.00000000	          0.00000000	
          0.49600000	         70.56841962	        552.57630832	        -31.75864118	         -0.68757520	          0.00000000	          0.11413266	          0.00000000	          0.00000000	          0.00000000	          0.00000000	          0.00000000	          0.00000000	          0.00000000	          6.45641517	          0.00000000	          0.00000000	          0.00000000	          0.00000000	
          0.50000000	         73.67460728	        568.20391735	        -34.35184685	         -0.68571109	          0.00000000	          0.11405679	          0.00000000	          0.00000000	          0.00000000	          0.00000000	          0.00000000	          0.00000000	          0.00000000	          6.30095788	          0.00000000	          0.00000000	          0.00000000	          0.00000000	
          0.50400000	         76.52117933	        583.96603910	        -36.84143651	         -0.68377096	          0.00000000	          0.11387180	          0.00000000	          0.00000000	          0.00000000	          0.00000000	          0.00000000	          0.00000000	          0.00000000	          6.09219537	          0.00000000	          0.00000000	          0.00000000	          0.00000000	
          0.50800000	         78.98040430	        599.77768464	        -38.80509009	         -0.68178488	          0.00000000	          0.11353968	          0.00000000	          0.00000000	          0.00000000	          0.00000000	          0.00000000	          0.00000000	          0.00000000	          5.88864261	          0.00000000	          0.00000000	          0.00000000	          0.00000000	
          0.51200000	         81.00094679	        615.56818355	        -39.90272224	         -0.67977831	          0.00000000	          0.11304853	          0.00000000	          0.00000000	          0.00000000	          0.00000000	          0.00000000	          0.00000000	          0.00000000	          5.75034839	          0.00000000	          0.00000000	          0.00000000	          0.00000000	
          0.51600000	         82.64358391	        631.27525432	        -39.93521811	         -0.67778960	          0.00000000	          0.11241520	          0.00000000	          0.00000000	          0.00000000	          0.00000000	          0.00000000	          0.00000000	          0.00000000	          5.72563042	          0.00000000	          0.00000000	          0.00000000	          0.00000000	
          0.52000000	         84.06917376	        646.84968171	        -38.85707605	         -0.67586659	          0.00000000	          0.11166923	          0.00000000	          0.00000000	          0.00000000	          0.00000000	          0.00000000	          0.00000000	          0.00000000	          5.83967637	          0.00000000	          0.00000000	          0.00000000	          0.00000000	
          0.52400000	         85.49609562	        662.25679545	        -36.77912881	         -0.67405094	          0.00000000	          0.11084458	          0.00000000	          0.00000000	          0.00000000	          0.00000000	          0.00000000	          0.00000000	          0.00000000	          6.08755361	          0.00000000	          0.00000000	          0.00000000	          0.00000000	
          0.52800000	         87.15836098	        677.46316610	        -33.95925384	         -0.67236515	          0.00000000	          0.10997775	          0.00000000	          0.00000000	          0.00000000	          0.00000000	          0.00000000	          0.00000000	          0.00000000	          6.43347787	          0.00000000	          0.00000000	          0.00000000	          0.00000000	
          0.53200000	         89.27064921	        692.41142423	        -30.76259558	         -0.67081500	          0.00000000	          0.10910421	          0.00000000	          0.00000000	          0.00000000	          0.00000000	          0.00000000	          0.00000000	          0.00000000	          6.81698601	          0.00000000	          0.00000000	          0.00000000	          0.00000000	
          0.53600000	         91.99148000	        706.99914956	        -27.59950230	         -0.66939498	          0.00000000	          0.10825302	          0.00000000	          0.00000000	          0.00000000	          0.00000000	          0.00000000	          0.00000000	          0.00000000	          7.16493357	          0.00000000	          0.00000000	          0.00000000	          0.00000000	
          0.54000000	         95.39275513	        721.07487361	        -24.86016937	         -0.66808530	          0.00000000	          0.10744234	          0.00000000	          0.00000000	          0.00000000	          0.00000000	          0.00000000	          0.00000000	          0.00000000	          7.40655468	          0.00000000	          0.00000000	          0.00000000	          0.00000000	
          0.54400000	         99.45433978	        734.45095309	        -22.85384156	         -0.66685339	          0.00000000	          0.10668454	          0.00000000	          0.00000000	          0.00000000	          0.00000000	          0.00000000	          0.00000000	          0.00000000	          7.48794223	          0.00000000	          0.00000000	          0.00000000	          0.00000000	
          0.54800000	        104.08685202	        746.92789213	        -21.75693475	         -0.66566575	          0.00000000	          0.10599089	          0.00000000	          0.00000000	          0.00000000	          0.00000000	          0.00000000	          0.00000000	          0.00000000	          7.38262526	          0.00000000	          0.00000000	          0.00000000	          0.00000000	
          0.55200000	        109.16862324	        758.32579716	        -21.57943401	         -0.66450115	          0.00000000	          0.10536556	          0.00000000	          0.00000000	          0.00000000	          0.00000000	          0.00000000	          0.00000000	          0.00000000	          7.09619634	          0.00000000	          0.00000000	          0.00000000	          0.00000000	
          0.55600000	        114.58251036	        768.50477620	        -22.15983142	         -0.66335878	          0.00000000	          0.10479979	          0.00000000	          0.00000000	          0.00000000	          0.00000000	          0.00000000	          0.00000000	          0.00000000	          6.66453261	          0.00000000	          0.00000000	          0.00000000	          0.00000000	
          0.56000000	        120.24329912	        777.35553937	        -23.19344193	         -0.66225057	          0.00000000	          0.10427560	          0.00000000	          0.00000000	          0.00000000	          0.00000000	          0.00000000	          0.00000000	          0.00000000	          6.14648389	          0.00000000	          0.00000000	          0.00000000	          0.00000000	
          0.56400000	        126.10977221	        784.77429524	        -24.29153469	         -0.66118340	          0.00000000	          0.10377315	          0.00000000	          0.00000000	          0.00000000	          0.00000000	          0.00000000	          0.00000000	          0.00000000	          5.61272773	          0.00000000	          0.00000000	          0.00000000	          0.00000000	
          0.56800000	        132.17933695	        790.65070401	        -25.05976327	         -0.66015611	          0.00000000	          0.10327379	          0.00000000	          0.00000000	          0.00000000	          0.00000000	          0.00000000	          0.00000000	          0.00000000	          5.13289395	          0.00000000	          0.00000000	          0.00000000	          0.00000000	
